<?xml version="1.0" encoding="utf-8"?>
<!-- Generator: Adobe Illustrator 16.0.0, SVG Export Plug-In . SVG Version: 6.00 Build 0)  -->
<!DOCTYPE svg PUBLIC "-//W3C//DTD SVG 1.1//EN" "http://www.w3.org/Graphics/SVG/1.1/DTD/svg11.dtd">
<svg version="1.1" id="Layer_1" xmlns="http://www.w3.org/2000/svg" xmlns:xlink="http://www.w3.org/1999/xlink" x="0px" y="0px"
	 width="512px" height="512px" viewBox="0 0 512 512" enable-background="new 0 0 512 512" xml:space="preserve">
<path d="M336,32c-44.813-42.688-115.203-42.688-160,0c-17.672,0-32,14.313-32,32v64c0,17.688,14.328,32,32,32
	c9.609,9.156,20.547,15.938,32,21.156V256h16v224l32,32l32-32V256h16v-74.844c11.469-5.219,22.375-12,32-21.156
	c17.688,0,32-14.313,32-32V64C368,46.313,353.688,32,336,32z M288,64c0,17.688-14.313,32-32,32c-17.672,0-32-14.313-32-32
	s14.328-32,32-32C273.688,32,288,46.313,288,64z"/>
</svg>
