<?xml version="1.0" encoding="utf-8"?>
<!-- Generator: Adobe Illustrator 16.0.0, SVG Export Plug-In . SVG Version: 6.00 Build 0)  -->
<!DOCTYPE svg PUBLIC "-//W3C//DTD SVG 1.1//EN" "http://www.w3.org/Graphics/SVG/1.1/DTD/svg11.dtd">
<svg version="1.1" id="Layer_1" xmlns="http://www.w3.org/2000/svg" xmlns:xlink="http://www.w3.org/1999/xlink" x="0px" y="0px"
	 width="512px" height="512px" viewBox="0 0 512 512" enable-background="new 0 0 512 512" xml:space="preserve">
<path d="M96,246.094V160C96,71.625,167.641,0,256,0c88.375,0,160,71.625,160,160v86.094c-16.375-24.656-38.344-45.219-64-60.125V160
	c0-52.938-43.063-96-96-96s-96,43.063-96,96v25.969C134.328,200.875,112.375,221.438,96,246.094z M416,352
	c0,88.375-71.625,160-160,160c-88.359,0-160-71.625-160-160s71.641-160,160-160C344.375,192,416,263.625,416,352z M288,320
	c0-17.688-14.328-32-32-32s-32,14.313-32,32c0,11.719,6.609,21.531,16,27.094V400c0,8.844,7.156,16,16,16s16-7.156,16-16v-52.906
	C281.391,341.531,288,331.719,288,320z"/>
</svg>
