<?xml version="1.0" encoding="utf-8"?>
<!-- Generator: Adobe Illustrator 16.0.0, SVG Export Plug-In . SVG Version: 6.00 Build 0)  -->
<!DOCTYPE svg PUBLIC "-//W3C//DTD SVG 1.1//EN" "http://www.w3.org/Graphics/SVG/1.1/DTD/svg11.dtd">
<svg version="1.1" id="Layer_1" xmlns="http://www.w3.org/2000/svg" xmlns:xlink="http://www.w3.org/1999/xlink" x="0px" y="0px"
	 width="25px" height="25px" viewBox="0 0 25 25" enable-background="new 0 0 25 25" xml:space="preserve">
<path fill="#010101" d="M12.508,21.776c-7.209,0-11.345-1.031-11.345-1.031c0-6.149,5.153-4.189,5.153-14.406
	c0-2.698,1.723-3.718,4.129-4.029c-0.002-0.039-0.006-0.079-0.006-0.117c0-1.138,0.923-2.062,2.062-2.062
	c1.138,0,2.063,0.924,2.063,2.062c0,0.037-0.005,0.075-0.007,0.111c2.415,0.306,4.127,1.32,4.127,4.035
	c0,10.277,5.155,8.294,5.155,14.406C23.838,20.745,19.716,21.776,12.508,21.776z M9.579,22.746c0.408,1.23,1.554,2.122,2.921,2.122
	c1.365,0,2.513-0.892,2.921-2.121c-0.908,0.036-1.876,0.06-2.913,0.06C11.463,22.807,10.491,22.784,9.579,22.746z"/>
</svg>
