<?xml version="1.0" encoding="utf-8"?>
<!-- Generator: Adobe Illustrator 16.0.4, SVG Export Plug-In . SVG Version: 6.00 Build 0)  -->
<!DOCTYPE svg PUBLIC "-//W3C//DTD SVG 1.1//EN" "http://www.w3.org/Graphics/SVG/1.1/DTD/svg11.dtd">
<svg version="1.1" id="Capa_1" xmlns="http://www.w3.org/2000/svg" xmlns:xlink="http://www.w3.org/1999/xlink" x="0px" y="0px"
	 width="20.797px" height="22px" viewBox="0 0 20.797 22" enable-background="new 0 0 20.797 22" xml:space="preserve">
<g>
	<path d="M19.37,1.634V0H0v20.367h0.08C0.261,21.113,0.806,22,2.039,22h18.758V1.634H19.37z M18.146,1.223c0,0.313,0,1.798,0,3.789
		H1.221c0-1.991,0-3.475,0-3.789C2.324,1.223,17.043,1.223,18.146,1.223z M1.221,5.897h16.925c0,5.072,0,12.5,0,13.25
		c-1.103,0-15.822,0-16.925,0C1.221,18.396,1.221,10.969,1.221,5.897z M19.577,20.779c-1.144,0-17.538,0-17.538,0
		c-0.377,0-0.578-0.2-0.687-0.412H19.37V2.854c0.088,0,0.162,0,0.207,0C19.577,3.964,19.577,19.67,19.577,20.779z"/>
	<rect x="10.426" y="6.986" width="6.155" height="1.222"/>
	<rect x="10.426" y="9.469" width="6.155" height="1.225"/>
	<rect x="10.426" y="11.953" width="6.155" height="1.227"/>
	<rect x="10.426" y="14.303" width="6.155" height="1.227"/>
	<rect x="10.426" y="16.787" width="6.155" height="1.225"/>
	<rect x="2.359" y="6.986" width="6.293" height="6.194"/>
	<rect x="6.238" y="2.02" width="7.281" height="2.177"/>
	<rect x="2.29" y="14.438" width="6.479" height="1.226"/>
	<rect x="2.29" y="16.919" width="6.479" height="1.226"/>
</g>
</svg>
