<?xml version="1.0" encoding="utf-8"?>
<!-- Generator: Adobe Illustrator 16.0.0, SVG Export Plug-In . SVG Version: 6.00 Build 0)  -->
<!DOCTYPE svg PUBLIC "-//W3C//DTD SVG 1.1//EN" "http://www.w3.org/Graphics/SVG/1.1/DTD/svg11.dtd">
<svg version="1.1" id="Layer_3" xmlns="http://www.w3.org/2000/svg" xmlns:xlink="http://www.w3.org/1999/xlink" x="0px" y="0px"
	 width="100px" height="100px" viewBox="0 0 100 100" enable-background="new 0 0 100 100" xml:space="preserve">
<path d="M50,1.125C23.007,1.125,1.125,23.007,1.125,50S23.007,98.875,50,98.875S98.875,76.993,98.875,50S76.993,1.125,50,1.125z
	 M79.555,36.966c0.023,0.577,0.035,1.155,0.035,1.736c0,20.878-15.887,42.473-42.473,42.473c-8.127,0-16.04-2.319-22.883-6.708
	c-0.143-0.091-0.202-0.268-0.145-0.427c0.057-0.158,0.218-0.256,0.383-0.237c1.148,0.136,2.322,0.205,3.487,0.205
	c6.323,0,12.309-1.955,17.372-5.664c-6.069-0.512-11.285-4.62-13.161-10.478c-0.039-0.122-0.011-0.254,0.073-0.35
	c0.085-0.096,0.215-0.138,0.339-0.116c1.682,0.32,3.392,0.34,5.04,0.073c-6.259-1.946-10.658-7.808-10.658-14.484l0.002-0.194
	c0.003-0.127,0.072-0.243,0.182-0.306c0.109-0.064,0.245-0.065,0.355-0.003c1.632,0.906,3.438,1.488,5.291,1.711
	c-3.597-2.867-5.709-7.213-5.709-11.862c0-2.682,0.71-5.318,2.054-7.623c0.06-0.103,0.166-0.169,0.284-0.178
	c0.119-0.012,0.234,0.04,0.309,0.132c7.362,9.03,18.191,14.59,29.771,15.305c-0.193-0.972-0.291-1.974-0.291-2.985
	c0-8.361,6.802-15.162,15.162-15.162c4.111,0,8.082,1.689,10.929,4.641c3.209-0.654,6.266-1.834,9.089-3.508
	c0.129-0.077,0.292-0.065,0.41,0.028c0.117,0.094,0.165,0.25,0.119,0.394c-0.957,2.993-2.824,5.604-5.33,7.489
	c2.361-0.411,4.652-1.105,6.831-2.072c0.147-0.067,0.319-0.025,0.424,0.098c0.104,0.124,0.113,0.301,0.023,0.435
	C84.884,32.3,82.424,34.869,79.555,36.966z"/>
</svg>
