<?xml version="1.0" encoding="utf-8"?>
<!-- Generator: Adobe Illustrator 16.0.4, SVG Export Plug-In . SVG Version: 6.00 Build 0)  -->
<!DOCTYPE svg PUBLIC "-//W3C//DTD SVG 1.1//EN" "http://www.w3.org/Graphics/SVG/1.1/DTD/svg11.dtd">
<svg version="1.1" id="Capa_1" xmlns="http://www.w3.org/2000/svg" xmlns:xlink="http://www.w3.org/1999/xlink" x="0px" y="0px"
	 width="23.305px" height="21.789px" viewBox="0 0 23.305 21.789" enable-background="new 0 0 23.305 21.789" xml:space="preserve">
<path d="M22.188,2.551c-0.023-0.084-0.6-2.038-2.983-2.389c-1.854-0.272-6.184-0.223-7.17,0.311l-1.021,0.634
	c0,0-1.358,0.791-1.361,0.791c-0.154,0.05-0.837,0.087-2.034,0.028V1.302H0V12.61h7.617v-0.132c1.03,0.516,2.263,1.354,2.95,2.417
	c0.944,1.444,1.594,3.241,2.062,4.551c0.57,1.585,0.807,2.24,1.496,2.316c1.736,0.194,2.957-0.759,3.261-2.55
	c0.078-0.446,0.113-0.883,0.113-1.305c0-1.541-0.435-2.818-0.825-3.699c1.044,0,2.308,0,2.308,0c1.922,0,3.255-0.871,3.958-2.584
	C24.018,9.016,22.381,3.199,22.188,2.551z M21.559,11.056c-0.469,1.146-1.267,1.658-2.575,1.658h-4.908l0.762,1.158
	c0.012,0.021,1.166,1.805,1.166,4.047c0,0.338-0.027,0.688-0.086,1.045c-0.157,0.902-0.575,1.32-1.334,1.326
	c-0.103-0.258-0.544-1.35-0.544-1.35c-0.495-1.382-1.178-3.273-2.214-4.863c-1.081-1.656-2.985-2.722-4.207-3.219V3.41
	c1.214,0.057,2.108,0.038,2.507-0.094l1.716-0.961c0,0,0.905-0.569,0.899-0.566c0.549-0.263,4.251-0.44,6.25-0.146
	c1.399,0.204,1.751,1.275,1.764,1.319C21.227,4.602,22.303,9.253,21.559,11.056z"/>
</svg>
