<?xml version="1.0" encoding="iso-8859-1"?>
<!-- Generator: Adobe Illustrator 16.0.0, SVG Export Plug-In . SVG Version: 6.00 Build 0)  -->
<!DOCTYPE svg PUBLIC "-//W3C//DTD SVG 1.1//EN" "http://www.w3.org/Graphics/SVG/1.1/DTD/svg11.dtd">
<svg version="1.1" id="Capa_1" xmlns="http://www.w3.org/2000/svg" xmlns:xlink="http://www.w3.org/1999/xlink" x="0px" y="0px"
	 width="29.533px" height="29.534px" viewBox="0 0 29.533 29.534" style="enable-background:new 0 0 29.533 29.534;"
	 xml:space="preserve">
<path d="M14.768,0C6.611,0,0,6.609,0,14.768c0,8.155,6.611,14.767,14.768,14.767c8.154,0,14.766-6.612,14.766-14.767
	C29.533,6.609,22.922,0,14.768,0z M14.768,27.126c-6.83,0-12.361-5.532-12.361-12.359c0-6.828,5.531-12.362,12.361-12.362
	c6.824,0,12.359,5.535,12.359,12.362C27.127,21.594,21.592,27.126,14.768,27.126z"/>
<polygon points="16.83,11.143 12.678,11.143 12.678,11.15 11.133,11.15 11.133,13.563 12.678,13.563 12.678,22.181 11.039,22.181 
	11.039,24.487 12.678,24.487 12.678,24.503 16.83,24.503 16.83,24.487 18.188,24.487 18.188,22.181 16.83,22.181 "/>
<path d="M14.725,9.504c1.395,0,2.24-0.928,2.24-2.077c-0.027-1.172-0.846-2.072-2.184-2.072c-1.336,0-2.211,0.899-2.211,2.072
	C12.57,8.576,13.416,9.504,14.725,9.504z"/>
<g>
</g>
<g>
</g>
<g>
</g>
<g>
</g>
<g>
</g>
<g>
</g>
<g>
</g>
<g>
</g>
<g>
</g>
<g>
</g>
<g>
</g>
<g>
</g>
<g>
</g>
<g>
</g>
<g>
</g>
</svg>
