<?xml version="1.0" encoding="utf-8"?>
<!-- Generator: Adobe Illustrator 16.0.4, SVG Export Plug-In . SVG Version: 6.00 Build 0)  -->
<!DOCTYPE svg PUBLIC "-//W3C//DTD SVG 1.1//EN" "http://www.w3.org/Graphics/SVG/1.1/DTD/svg11.dtd">
<svg version="1.1" id="Capa_1" xmlns="http://www.w3.org/2000/svg" xmlns:xlink="http://www.w3.org/1999/xlink" x="0px" y="0px"
	 width="23.303px" height="20.945px" viewBox="0 0 23.303 20.945" enable-background="new 0 0 23.303 20.945" xml:space="preserve">
<g>
	<path d="M21.885,0H1.419C0.638,0,0,0.639,0,1.418v14.715c0,0.778,0.638,1.418,1.419,1.418h20.466c0.78,0,1.418-0.64,1.418-1.418
		V1.418C23.303,0.639,22.665,0,21.885,0z M21.528,15.09H1.775V1.989h19.753V15.09z"/>
	<polygon points="9.026,18.224 6.348,20.945 16.994,20.945 14.316,18.224 	"/>
	<path d="M4.791,12.463c0.523,0,0.949-0.425,0.949-0.948c0-0.095-0.028-0.181-0.054-0.268c1.213-0.978,3.356-2.702,4.333-3.455
		c0.154,0.109,0.333,0.187,0.536,0.187c0.169,0,0.319-0.056,0.456-0.133c0.628,0.534,1.696,1.442,2.454,2.087
		c-0.01,0.055-0.032,0.104-0.032,0.162c0,0.524,0.426,0.949,0.95,0.949s0.95-0.425,0.95-0.949c0-0.093-0.028-0.178-0.053-0.263
		l2.454-2.216c0.132,0.069,0.274,0.118,0.434,0.118c0.524,0,0.949-0.425,0.949-0.949s-0.425-0.949-0.949-0.949
		S17.22,6.261,17.22,6.786c0,0.125,0.027,0.244,0.071,0.353c-0.686,0.619-1.744,1.575-2.404,2.171
		c-0.147-0.095-0.313-0.165-0.503-0.165c-0.224,0-0.42,0.089-0.582,0.218c-0.627-0.533-1.641-1.395-2.362-2.008
		c0.038-0.102,0.065-0.209,0.065-0.325c0-0.524-0.425-0.949-0.949-0.949S9.607,6.506,9.607,7.03c0,0.116,0.028,0.224,0.066,0.326
		l-4.356,3.389c-0.152-0.104-0.327-0.18-0.525-0.18c-0.524,0-0.949,0.425-0.949,0.949C3.842,12.038,4.267,12.463,4.791,12.463z"/>
</g>
</svg>
