<?xml version="1.0" encoding="utf-8"?>
<!-- Generator: Adobe Illustrator 16.0.0, SVG Export Plug-In . SVG Version: 6.00 Build 0)  -->
<!DOCTYPE svg PUBLIC "-//W3C//DTD SVG 1.1//EN" "http://www.w3.org/Graphics/SVG/1.1/DTD/svg11.dtd">
<svg version="1.1" id="Layer_1" xmlns="http://www.w3.org/2000/svg" xmlns:xlink="http://www.w3.org/1999/xlink" x="0px" y="0px"
	 width="33px" height="25px" viewBox="0 0 33 25" enable-background="new 0 0 33 25" xml:space="preserve">
<path fill="#010101" d="M20.166,17.154h-1.551c-1.714,0-3.103-1.389-3.103-3.104v-0.996c0.686-0.817,1.178-1.783,1.486-2.801
	c0.031-0.172,0.196-0.256,0.307-0.375c0.594-0.594,0.711-1.596,0.267-2.309c-0.063-0.108-0.171-0.203-0.165-0.337
	c0-0.91,0.004-1.82-0.002-2.729c-0.023-1.098-0.337-2.239-1.108-3.051c-0.619-0.657-1.473-1.047-2.353-1.215
	c-1.112-0.213-2.275-0.202-3.377,0.079c-0.954,0.24-1.851,0.8-2.405,1.628C7.67,2.664,7.455,3.539,7.419,4.401
	C7.406,5.326,7.416,6.254,7.413,7.182c0.021,0.186-0.136,0.312-0.208,0.465C6.786,8.408,6.97,9.445,7.645,9.999
	c0.171,0.119,0.203,0.334,0.265,0.52c0.294,0.916,0.782,1.765,1.399,2.503v1.029c0,1.715-1.39,3.104-3.102,3.104H4.655
	c0,0-2.812,0.775-4.654,4.652v1.551c0,0.857,0.694,1.553,1.551,1.553h21.716c0.857,0,1.553-0.695,1.553-1.553v-1.551
	C22.979,17.93,20.166,17.154,20.166,17.154z"/>
<path fill="#010101" d="M30.264,14.866l-2.736-4.733H33L30.264,14.866z"/>
</svg>
